<?xml version="1.0" encoding="iso-8859-1"?><svg viewBox="0 0 26 26" xmlns="http://www.w3.org/2000/svg" xmlns:xlink="http://www.w3.org/1999/xlink"><style>:root>svg{display:none}:root>svg:target{display:block}</style><svg viewBox="0 0 26 26" id="excel-file" xmlns="http://www.w3.org/2000/svg"><g fill="#030104"><path d="M25.162 3H16v2.984h3.031v2.031H16V10h3v2h-3v2h3v2h-3v2h3v2h-3v3h9.162c.461 0 .838-.391.838-.87V3.87c0-.479-.377-.87-.838-.87zM24 20h-4v-2h4v2zm0-4h-4v-2h4v2zm0-4h-4v-2h4v2zm0-4h-4V6h4v2zM0 2.889v20.223L15 26V0L0 2.889zM9.488 18.08l-1.745-3.299c-.066-.123-.134-.349-.205-.678h-.027a5.135 5.135 0 01-.234.707l-1.751 3.27H2.807l3.228-5.064-2.953-5.065h2.776l1.448 3.037c.113.24.214.525.304.854h.028c.057-.198.163-.492.318-.883l1.61-3.009h2.542l-3.037 5.022 3.122 5.107-2.705.001z"/></g></svg><svg viewBox="0 0 20.766 20.766" id="wi-fi" xmlns="http://www.w3.org/2000/svg"><g fill="#030104"><circle cx="10.432" cy="15.771" r="2.426"/><path d="M16.23 9.926c-.036-.037-.074-.07-.111-.104l-.109-.103c-.018-.019-.038-.033-.061-.051a7.914 7.914 0 00-10.932.257l-.351.352-.486.486a1.522 1.522 0 00.004 2.15 1.52 1.52 0 002.15.004l.838-.838a4.89 4.89 0 016.904-.001l.605.586a1.508 1.508 0 002.131-.005 1.5 1.5 0 00.443-1.066 1.483 1.483 0 00-.439-1.063l-.586-.604z"/><path d="M20.363 6.927l-.504-.504c-.002-.002-.003-.005-.007-.006l-.398-.4a1.435 1.435 0 00-.226-.181c-5.113-4.489-12.89-4.351-17.84.411-.024.022-.051.037-.075.061l-.91.911a1.384 1.384 0 00.006 1.959 1.384 1.384 0 001.959.005l.91-.909c.006-.008.011-.015.017-.02 4.003-3.867 10.353-3.891 14.388-.079l.716.717a1.387 1.387 0 001.96-.005 1.388 1.388 0 00.004-1.96z"/></g></svg><svg viewBox="0 0 19.22 19.22" id="wordpress-" xmlns="http://www.w3.org/2000/svg"><path d="M18.029 5.13C16.577 2.289 12.902-.398 8.277.254.865 1.295-3.04 10.682 2.878 16.452c7.158 6.979 20.372-1.124 15.151-11.322zM7.581 18.541C3.753 17.889.516 13.905.44 9.833.343 4.748 3.871 1.395 8.104.775c5.924-.869 11.265 3.456 10.449 10.103-.668 5.453-5.748 8.554-10.972 7.663zM5.84 5.479c-.235.289-.989.058-1.22.348.95 2.88 1.793 5.87 2.961 8.533 1.114-2.884 2.343-5.696.522-8.533-.292-.29-1.273.111-1.22-.523.778-.312 4.271-.312 5.05 0-.002.578-.982.177-1.219.523.963 2.811 1.735 5.814 2.961 8.36.327-2.11 1.444-2.872 1.393-5.052-.055-2.484-3.17-4.662-.174-5.748C11.977.257 4.153 1.215 2.878 5.13c1.163.25 2.735-.522 2.962.349zm7.836 10.973c3.17-1.164 5.382-6.925 2.96-10.452.052 3.838-2.016 7.03-2.96 10.452zM5.84 16.8C4.671 13.206 3.468 9.648 2.007 6.35.334 10.7 2.473 15.388 5.84 16.8zm1.391.522c1.154.604 3.683.419 4.876 0-.761-2.374-1.339-4.929-2.612-6.793-.611 2.408-1.451 4.588-2.264 6.793z"/></svg></svg>